HIERARCHY
ROOT Hips
{
	OFFSET -3.958830 18.904000 13.208200
	CHANNELS 6 Xposition Yposition Zposition Zrotation Yrotation Xrotation 
	JOINT LHipJoint
	{
		OFFSET 0.000000 0.000000 0.000000
		CHANNELS 3 Zrotation Yrotation Xrotation
		JOINT LeftUpLeg
		{
			OFFSET 1.800000 -1.400000 0.085000
			CHANNELS 3 Zrotation Yrotation Xrotation
			JOINT LeftLeg
			{
				OFFSET 2.215000 -6.000000 0.000000
				CHANNELS 3 Zrotation Yrotation Xrotation
				JOINT LeftFoot
				{
					OFFSET 2.500000 -6.900000 0.000000
					CHANNELS 3 Zrotation Yrotation Xrotation
					JOINT LeftToeBase
					{
						OFFSET 0.200000 -0.500000 1.950000
						CHANNELS 3 Zrotation Yrotation Xrotation
						End Site
						{
							OFFSET 0.000000 0.000000 0.000000
						}
					}
				}
			}
		}
	}
	JOINT RHipJoint
	{
		OFFSET 0.000000 0.000000 0.000000
		CHANNELS 3 Zrotation Yrotation Xrotation
		JOINT RightUpLeg
		{
			OFFSET -1.800000 -1.400000 0.085000
			CHANNELS 3 Zrotation Yrotation Xrotation
			JOINT RightLeg
			{
				OFFSET -2.215000 -6.000000 0.000000
				CHANNELS 3 Zrotation Yrotation Xrotation
				JOINT RightFoot
				{
					OFFSET -2.500000 -6.900000 0.000000
					CHANNELS 3 Zrotation Yrotation Xrotation
					JOINT RightToeBase
					{
						OFFSET -0.200000 -0.500000 1.950000
						CHANNELS 3 Zrotation Yrotation Xrotation
						End Site
						{
							OFFSET 0.000000 0.000000 0.000000
						}
					}
				}
			}
		}
	}
	JOINT LowerBack
	{
		OFFSET 0.000000 0.000000 0.000000
		CHANNELS 3 Zrotation Yrotation Xrotation
		JOINT Spine
		{
			OFFSET -0.087000 1.940000 -0.288900
			CHANNELS 3 Zrotation Yrotation Xrotation
			JOINT Spine1
			{
				OFFSET 0.000000 1.950000 0.060000
				CHANNELS 3 Zrotation Yrotation Xrotation
				JOINT Neck
				{
					OFFSET 0.000000 0.000000 0.000000
					CHANNELS 3 Zrotation Yrotation Xrotation
					JOINT Neck1
					{
						OFFSET 0.000000 1.600000 0.340000
						CHANNELS 3 Zrotation Yrotation Xrotation
						JOINT Head
						{
							OFFSET 0.000000 1.667000 -0.240000
							CHANNELS 3 Zrotation Yrotation Xrotation
							End Site
							{
								OFFSET 0.000000 0.000000 0.000000
							}
						}
					}
				}
				JOINT LeftShoulder
				{
					OFFSET 0.000000 0.000000 0.000000
					CHANNELS 3 Zrotation Yrotation Xrotation
					JOINT LeftArm
					{
						OFFSET 2.700000 1.550000 -0.730000
						CHANNELS 3 Zrotation Yrotation Xrotation
						JOINT LeftForeArm
						{
							OFFSET 5.450000 0.000000 0.000000
							CHANNELS 3 Zrotation Yrotation Xrotation
							JOINT LeftHand
							{
								OFFSET 3.450000 0.000000 0.000000
								CHANNELS 3 Zrotation Yrotation Xrotation
								JOINT LeftHandIndex1
								{
									OFFSET 0.750000 0.000000 0.000000
									CHANNELS 3 Zrotation Yrotation Xrotation
									End Site
									{
										OFFSET 0.000000 0.000000 0.000000
									}
								}
							}
						}
					}
				}
				JOINT RightShoulder
				{
					OFFSET 0.000000 0.000000 0.000000
					CHANNELS 3 Zrotation Yrotation Xrotation
					JOINT RightArm
					{
						OFFSET -2.700000 1.550000 -0.730000
						CHANNELS 3 Zrotation Yrotation Xrotation
						JOINT RightForeArm
						{
							OFFSET -5.450000 0.000000 0.000000
							CHANNELS 3 Zrotation Yrotation Xrotation
							JOINT RightHand
							{
								OFFSET -3.450000 0.000000 0.000000
								CHANNELS 3 Zrotation Yrotation Xrotation
								JOINT RightHandIndex1
								{
									OFFSET -0.750000 0.000000 0.000000
									CHANNELS 3 Zrotation Yrotation Xrotation
									End Site
									{
										OFFSET 0.000000 0.000000 0.000000
									}
								}
							}
						}
					}
				}
			}
		}
	}
}
MOTION
Frames: 4
Frame Time: 0.016667
-0.631020 14.340040 -1.055330 -36.860578 1.889622 -2.322461 -15.788441 9.539220 5.959099 -21.026614 -19.406337 -48.954781 20.934307 4.820519 90.356802 1.622581 14.859919 -0.785672 0.938820 1.065140 1.083850 18.518204 -6.412436 4.855777 -19.550346 18.452457 -44.237169 11.695179 -32.256659 96.421597 -3.902700 -16.725677 -1.289080 0.631330 -0.413230 0.344870 -3.089881 -2.746198 -10.344476 -0.383303 7.642777 64.937105 -5.942796 7.014264 33.928349 1.632994 3.142048 -24.945930 -0.990067 6.387634 53.619898 2.864250 9.904670 -35.261940 13.254946 -41.262832 7.573842 -6.242330 -21.400464 1.533148 3.953293 9.512725 -1.513489 -4.422150 1.437113 1.002280 -0.446230 0.977340 -0.107240 -19.488436 40.241985 12.650127 23.249489 17.308493 -8.263755 -24.337180 2.657256 -2.434701 2.959932 -1.497129 -0.020980 0.400960 -0.192930 -0.185560 
-0.605980 14.275670 -1.014700 -38.479364 4.033509 -3.447404 -15.752089 9.215433 6.180819 -19.539035 -21.160170 -49.467346 21.174623 4.314367 93.567636 1.766327 15.250224 -0.897264 0.951050 1.099290 1.037090 18.582801 -6.382600 4.819571 -21.248933 16.767092 -44.411135 14.050652 -34.600252 93.989848 -3.921870 -16.865277 -1.335743 0.635300 -0.434830 0.360530 -3.200444 -2.490944 -10.449327 2.363502 4.292771 65.245086 -6.865992 5.881861 34.003315 2.052495 2.948145 -24.627228 -1.564661 5.913538 53.586700 3.539800 8.745880 -34.736290 13.490337 -41.805180 8.518281 -7.732515 -21.014820 1.889539 4.570411 8.541403 -1.348100 -4.294575 1.647728 0.966540 -0.457210 0.972960 -0.102320 -20.272071 39.245000 12.497269 25.001012 16.124097 -7.634431 -23.601218 2.633409 -2.135277 2.955601 -1.501041 0.030550 0.346390 -0.191050 -0.156160 
-0.584340 14.229020 -0.960990 -40.429556 3.687881 -5.002278 -15.706577 9.117929 6.116935 -15.161159 -21.343274 -51.112924 19.014114 7.437058 98.222770 2.073608 15.880638 -0.996843 0.927710 1.121990 0.957320 18.628271 -6.366472 4.954311 -22.449585 16.499197 -46.258279 15.870585 -35.085012 91.321840 -3.854742 -16.717662 -1.279724 0.606830 -0.436340 0.324320 -3.325749 -2.275718 -10.496692 3.562313 2.567685 65.193583 -7.754810 5.698992 34.302308 2.578361 2.355433 -25.386430 -3.033602 5.486222 53.223390 4.166760 7.280240 -32.786160 13.724677 -42.005642 10.163636 -9.954191 -18.986187 1.981356 5.502654 6.167642 -0.999377 -4.043021 1.918412 0.864780 -0.469630 0.944460 -0.063680 -21.200837 39.618897 13.019133 26.237539 14.446490 -7.324634 -22.456014 1.102239 -1.550688 3.110446 -1.500686 0.091300 0.303530 -0.230480 -0.085300 
-0.590810 14.190260 -0.885680 -42.203266 3.369037 -6.325222 -15.696285 9.056172 6.002845 -10.339655 -21.047546 -52.693148 16.635980 10.941190 101.372280 2.248140 16.495966 -1.119502 0.891960 1.068480 0.913890 18.640833 -6.202638 5.184264 -24.266957 16.097755 -48.293921 20.096897 -37.506171 87.650195 -3.842813 -16.765413 -1.273012 0.570870 -0.405800 0.319960 -3.352572 -2.326096 -10.564105 4.225744 1.565624 64.346390 -7.189021 5.491392 34.714757 2.473363 1.725120 -25.781940 -4.275076 5.772246 52.568186 4.920960 6.982920 -31.057360 14.091508 -42.616888 11.494119 -13.075268 -18.547215 2.221234 6.126144 6.466982 -0.841860 -3.994407 2.076261 0.825590 -0.451640 0.895940 -0.056470 -21.104826 39.800744 13.533394 26.683048 12.097803 -7.778467 -22.379161 -1.252391 -1.075924 3.268581 -1.468123 0.093670 0.273600 -0.223290 -0.071200 
